<svg width="202" height="53" viewBox="0 0 202 53" fill="none" xmlns="http://www.w3.org/2000/svg">
<g filter="url(#filter0_dd_2_3)">
<path d="M29.12 20.58L30.14 21.78L23.92 26.22V25.58L30.14 29.98L29.12 31.2L22.82 26.58V25.22L29.12 20.58ZM54.2834 21.1C55.5901 21.1 56.5568 21.3867 57.1834 21.96C57.8101 22.5333 58.1234 23.4467 58.1234 24.7V32H56.8434L56.5034 30.48H56.4234C56.1168 30.8667 55.7968 31.1933 55.4634 31.46C55.1434 31.7133 54.7701 31.9 54.3434 32.02C53.9301 32.14 53.4234 32.2 52.8234 32.2C52.1834 32.2 51.6034 32.0867 51.0834 31.86C50.5768 31.6333 50.1768 31.2867 49.8834 30.82C49.5901 30.34 49.4434 29.74 49.4434 29.02C49.4434 27.9533 49.8634 27.1333 50.7034 26.56C51.5434 25.9733 52.8368 25.6533 54.5834 25.6L56.4034 25.54V24.9C56.4034 24.0067 56.2101 23.3867 55.8234 23.04C55.4368 22.6933 54.8901 22.52 54.1834 22.52C53.6234 22.52 53.0901 22.6067 52.5834 22.78C52.0768 22.94 51.6034 23.1267 51.1634 23.34L50.6234 22.02C51.0901 21.7667 51.6434 21.5533 52.2834 21.38C52.9234 21.1933 53.5901 21.1 54.2834 21.1ZM54.8034 26.82C53.4701 26.8733 52.5434 27.0867 52.0234 27.46C51.5168 27.8333 51.2634 28.36 51.2634 29.04C51.2634 29.64 51.4434 30.08 51.8034 30.36C52.1768 30.64 52.6501 30.78 53.2234 30.78C54.1301 30.78 54.8834 30.5333 55.4834 30.04C56.0834 29.5333 56.3834 28.76 56.3834 27.72V26.76L54.8034 26.82ZM73.1944 21.08C74.4077 21.08 75.3144 21.3933 75.9144 22.02C76.5144 22.6333 76.8144 23.6333 76.8144 25.02V32H75.0744V25.1C75.0744 24.26 74.8944 23.6267 74.5344 23.2C74.1877 22.7733 73.641 22.56 72.8944 22.56C71.8544 22.56 71.1077 22.86 70.6544 23.46C70.2144 24.06 69.9944 24.9333 69.9944 26.08V32H68.2544V25.1C68.2544 24.54 68.1744 24.0733 68.0144 23.7C67.8544 23.3133 67.6144 23.0267 67.2944 22.84C66.9744 22.6533 66.561 22.56 66.0544 22.56C65.3344 22.56 64.7677 22.7133 64.3544 23.02C63.941 23.3133 63.641 23.7467 63.4544 24.32C63.281 24.8933 63.1944 25.6 63.1944 26.44V32H61.4344V21.28H62.8544L63.1144 22.74H63.2144C63.441 22.3667 63.7144 22.06 64.0344 21.82C64.3677 21.5667 64.7344 21.38 65.1344 21.26C65.5344 21.14 65.9477 21.08 66.3744 21.08C67.201 21.08 67.8877 21.2267 68.4344 21.52C68.9944 21.8133 69.401 22.2667 69.6544 22.88H69.7544C70.1144 22.2667 70.601 21.8133 71.2144 21.52C71.841 21.2267 72.501 21.08 73.1944 21.08ZM84.2658 21.08C85.1858 21.08 85.9724 21.28 86.6258 21.68C87.2924 22.08 87.7991 22.6467 88.1458 23.38C88.5058 24.1 88.6858 24.9467 88.6858 25.92V26.98H81.3458C81.3724 28.1933 81.6791 29.12 82.2658 29.76C82.8658 30.3867 83.6991 30.7 84.7658 30.7C85.4458 30.7 86.0458 30.64 86.5658 30.52C87.0991 30.3867 87.6458 30.2 88.2058 29.96V31.5C87.6591 31.74 87.1191 31.9133 86.5858 32.02C86.0524 32.14 85.4191 32.2 84.6858 32.2C83.6724 32.2 82.7724 31.9933 81.9858 31.58C81.2124 31.1667 80.6058 30.5533 80.1658 29.74C79.7391 28.9133 79.5258 27.9067 79.5258 26.72C79.5258 25.5467 79.7191 24.54 80.1058 23.7C80.5058 22.86 81.0591 22.2133 81.7658 21.76C82.4858 21.3067 83.3191 21.08 84.2658 21.08ZM84.2458 22.52C83.4058 22.52 82.7391 22.7933 82.2458 23.34C81.7658 23.8733 81.4791 24.62 81.3858 25.58H86.8458C86.8458 24.9667 86.7524 24.4333 86.5658 23.98C86.3791 23.5267 86.0924 23.1733 85.7058 22.92C85.3324 22.6533 84.8458 22.52 84.2458 22.52ZM115.363 21.08C116.683 21.08 117.743 21.54 118.543 22.46C119.356 23.38 119.763 24.7667 119.763 26.62C119.763 27.8333 119.576 28.86 119.203 29.7C118.842 30.5267 118.329 31.1533 117.663 31.58C117.009 31.9933 116.236 32.2 115.343 32.2C114.796 32.2 114.309 32.1267 113.883 31.98C113.456 31.8333 113.089 31.6467 112.783 31.42C112.489 31.18 112.236 30.92 112.023 30.64H111.903C111.929 30.8667 111.956 31.1533 111.983 31.5C112.009 31.8467 112.023 32.1467 112.023 32.4V36.8H110.263V21.28H111.703L111.943 22.74H112.023C112.236 22.4333 112.489 22.1533 112.783 21.9C113.089 21.6467 113.449 21.4467 113.863 21.3C114.289 21.1533 114.789 21.08 115.363 21.08ZM115.043 22.56C114.323 22.56 113.743 22.7 113.303 22.98C112.863 23.2467 112.543 23.6533 112.343 24.2C112.143 24.7467 112.036 25.44 112.023 26.28V26.62C112.023 27.5 112.116 28.2467 112.303 28.86C112.489 29.4733 112.803 29.94 113.243 30.26C113.696 30.58 114.309 30.74 115.083 30.74C115.736 30.74 116.269 30.56 116.683 30.2C117.109 29.84 117.423 29.3533 117.623 28.74C117.836 28.1133 117.943 27.4 117.943 26.6C117.943 25.3733 117.703 24.3933 117.223 23.66C116.756 22.9267 116.029 22.56 115.043 22.56ZM126.627 21.1C127.934 21.1 128.901 21.3867 129.527 21.96C130.154 22.5333 130.467 23.4467 130.467 24.7V32H129.187L128.847 30.48H128.767C128.461 30.8667 128.141 31.1933 127.807 31.46C127.487 31.7133 127.114 31.9 126.687 32.02C126.274 32.14 125.767 32.2 125.167 32.2C124.527 32.2 123.947 32.0867 123.427 31.86C122.921 31.6333 122.521 31.2867 122.227 30.82C121.934 30.34 121.787 29.74 121.787 29.02C121.787 27.9533 122.207 27.1333 123.047 26.56C123.887 25.9733 125.181 25.6533 126.927 25.6L128.747 25.54V24.9C128.747 24.0067 128.554 23.3867 128.167 23.04C127.781 22.6933 127.234 22.52 126.527 22.52C125.967 22.52 125.434 22.6067 124.927 22.78C124.421 22.94 123.947 23.1267 123.507 23.34L122.967 22.02C123.434 21.7667 123.987 21.5533 124.627 21.38C125.267 21.1933 125.934 21.1 126.627 21.1ZM127.147 26.82C125.814 26.8733 124.887 27.0867 124.367 27.46C123.861 27.8333 123.607 28.36 123.607 29.04C123.607 29.64 123.787 30.08 124.147 30.36C124.521 30.64 124.994 30.78 125.567 30.78C126.474 30.78 127.227 30.5333 127.827 30.04C128.427 29.5333 128.727 28.76 128.727 27.72V26.76L127.147 26.82ZM138.078 32.2C137.131 32.2 136.285 32.0067 135.538 31.62C134.805 31.2333 134.225 30.6333 133.798 29.82C133.385 29.0067 133.178 27.9667 133.178 26.7C133.178 25.38 133.398 24.3067 133.838 23.48C134.278 22.6533 134.871 22.0467 135.618 21.66C136.378 21.2733 137.238 21.08 138.198 21.08C138.745 21.08 139.271 21.14 139.778 21.26C140.285 21.3667 140.698 21.5 141.018 21.66L140.478 23.12C140.158 23 139.785 22.8867 139.358 22.78C138.931 22.6733 138.531 22.62 138.158 22.62C137.438 22.62 136.845 22.7733 136.378 23.08C135.911 23.3867 135.565 23.84 135.338 24.44C135.111 25.04 134.998 25.7867 134.998 26.68C134.998 27.5333 135.111 28.26 135.338 28.86C135.565 29.46 135.905 29.9133 136.358 30.22C136.811 30.5267 137.378 30.68 138.058 30.68C138.645 30.68 139.158 30.62 139.598 30.5C140.051 30.38 140.465 30.2333 140.838 30.06V31.62C140.478 31.8067 140.078 31.9467 139.638 32.04C139.211 32.1467 138.691 32.2 138.078 32.2ZM147.528 21.08C148.448 21.08 149.234 21.28 149.888 21.68C150.554 22.08 151.061 22.6467 151.408 23.38C151.768 24.1 151.948 24.9467 151.948 25.92V26.98H144.608C144.634 28.1933 144.941 29.12 145.528 29.76C146.128 30.3867 146.961 30.7 148.028 30.7C148.708 30.7 149.308 30.64 149.828 30.52C150.361 30.3867 150.908 30.2 151.468 29.96V31.5C150.921 31.74 150.381 31.9133 149.848 32.02C149.314 32.14 148.681 32.2 147.948 32.2C146.934 32.2 146.034 31.9933 145.248 31.58C144.474 31.1667 143.868 30.5533 143.428 29.74C143.001 28.9133 142.788 27.9067 142.788 26.72C142.788 25.5467 142.981 24.54 143.368 23.7C143.768 22.86 144.321 22.2133 145.028 21.76C145.748 21.3067 146.581 21.08 147.528 21.08ZM147.508 22.52C146.668 22.52 146.001 22.7933 145.508 23.34C145.028 23.8733 144.741 24.62 144.648 25.58H150.108C150.108 24.9667 150.014 24.4333 149.828 23.98C149.641 23.5267 149.354 23.1733 148.968 22.92C148.594 22.6533 148.108 22.52 147.508 22.52ZM154.117 33.44L159.137 17.38H160.737L155.677 33.44H154.117ZM163.569 31.2L162.549 29.98L168.729 25.58V26.22L162.549 21.78L163.569 20.58L169.869 25.22V26.58L163.569 31.2Z" fill="black"/>
<path d="M29.12 20.58L30.14 21.78L23.92 26.22V25.58L30.14 29.98L29.12 31.2L22.82 26.58V25.22L29.12 20.58ZM54.2834 21.1C55.5901 21.1 56.5568 21.3867 57.1834 21.96C57.8101 22.5333 58.1234 23.4467 58.1234 24.7V32H56.8434L56.5034 30.48H56.4234C56.1168 30.8667 55.7968 31.1933 55.4634 31.46C55.1434 31.7133 54.7701 31.9 54.3434 32.02C53.9301 32.14 53.4234 32.2 52.8234 32.2C52.1834 32.2 51.6034 32.0867 51.0834 31.86C50.5768 31.6333 50.1768 31.2867 49.8834 30.82C49.5901 30.34 49.4434 29.74 49.4434 29.02C49.4434 27.9533 49.8634 27.1333 50.7034 26.56C51.5434 25.9733 52.8368 25.6533 54.5834 25.6L56.4034 25.54V24.9C56.4034 24.0067 56.2101 23.3867 55.8234 23.04C55.4368 22.6933 54.8901 22.52 54.1834 22.52C53.6234 22.52 53.0901 22.6067 52.5834 22.78C52.0768 22.94 51.6034 23.1267 51.1634 23.34L50.6234 22.02C51.0901 21.7667 51.6434 21.5533 52.2834 21.38C52.9234 21.1933 53.5901 21.1 54.2834 21.1ZM54.8034 26.82C53.4701 26.8733 52.5434 27.0867 52.0234 27.46C51.5168 27.8333 51.2634 28.36 51.2634 29.04C51.2634 29.64 51.4434 30.08 51.8034 30.36C52.1768 30.64 52.6501 30.78 53.2234 30.78C54.1301 30.78 54.8834 30.5333 55.4834 30.04C56.0834 29.5333 56.3834 28.76 56.3834 27.72V26.76L54.8034 26.82ZM73.1944 21.08C74.4077 21.08 75.3144 21.3933 75.9144 22.02C76.5144 22.6333 76.8144 23.6333 76.8144 25.02V32H75.0744V25.1C75.0744 24.26 74.8944 23.6267 74.5344 23.2C74.1877 22.7733 73.641 22.56 72.8944 22.56C71.8544 22.56 71.1077 22.86 70.6544 23.46C70.2144 24.06 69.9944 24.9333 69.9944 26.08V32H68.2544V25.1C68.2544 24.54 68.1744 24.0733 68.0144 23.7C67.8544 23.3133 67.6144 23.0267 67.2944 22.84C66.9744 22.6533 66.561 22.56 66.0544 22.56C65.3344 22.56 64.7677 22.7133 64.3544 23.02C63.941 23.3133 63.641 23.7467 63.4544 24.32C63.281 24.8933 63.1944 25.6 63.1944 26.44V32H61.4344V21.28H62.8544L63.1144 22.74H63.2144C63.441 22.3667 63.7144 22.06 64.0344 21.82C64.3677 21.5667 64.7344 21.38 65.1344 21.26C65.5344 21.14 65.9477 21.08 66.3744 21.08C67.201 21.08 67.8877 21.2267 68.4344 21.52C68.9944 21.8133 69.401 22.2667 69.6544 22.88H69.7544C70.1144 22.2667 70.601 21.8133 71.2144 21.52C71.841 21.2267 72.501 21.08 73.1944 21.08ZM84.2658 21.08C85.1858 21.08 85.9724 21.28 86.6258 21.68C87.2924 22.08 87.7991 22.6467 88.1458 23.38C88.5058 24.1 88.6858 24.9467 88.6858 25.92V26.98H81.3458C81.3724 28.1933 81.6791 29.12 82.2658 29.76C82.8658 30.3867 83.6991 30.7 84.7658 30.7C85.4458 30.7 86.0458 30.64 86.5658 30.52C87.0991 30.3867 87.6458 30.2 88.2058 29.96V31.5C87.6591 31.74 87.1191 31.9133 86.5858 32.02C86.0524 32.14 85.4191 32.2 84.6858 32.2C83.6724 32.2 82.7724 31.9933 81.9858 31.58C81.2124 31.1667 80.6058 30.5533 80.1658 29.74C79.7391 28.9133 79.5258 27.9067 79.5258 26.72C79.5258 25.5467 79.7191 24.54 80.1058 23.7C80.5058 22.86 81.0591 22.2133 81.7658 21.76C82.4858 21.3067 83.3191 21.08 84.2658 21.08ZM84.2458 22.52C83.4058 22.52 82.7391 22.7933 82.2458 23.34C81.7658 23.8733 81.4791 24.62 81.3858 25.58H86.8458C86.8458 24.9667 86.7524 24.4333 86.5658 23.98C86.3791 23.5267 86.0924 23.1733 85.7058 22.92C85.3324 22.6533 84.8458 22.52 84.2458 22.52ZM115.363 21.08C116.683 21.08 117.743 21.54 118.543 22.46C119.356 23.38 119.763 24.7667 119.763 26.62C119.763 27.8333 119.576 28.86 119.203 29.7C118.842 30.5267 118.329 31.1533 117.663 31.58C117.009 31.9933 116.236 32.2 115.343 32.2C114.796 32.2 114.309 32.1267 113.883 31.98C113.456 31.8333 113.089 31.6467 112.783 31.42C112.489 31.18 112.236 30.92 112.023 30.64H111.903C111.929 30.8667 111.956 31.1533 111.983 31.5C112.009 31.8467 112.023 32.1467 112.023 32.4V36.8H110.263V21.28H111.703L111.943 22.74H112.023C112.236 22.4333 112.489 22.1533 112.783 21.9C113.089 21.6467 113.449 21.4467 113.863 21.3C114.289 21.1533 114.789 21.08 115.363 21.08ZM115.043 22.56C114.323 22.56 113.743 22.7 113.303 22.98C112.863 23.2467 112.543 23.6533 112.343 24.2C112.143 24.7467 112.036 25.44 112.023 26.28V26.62C112.023 27.5 112.116 28.2467 112.303 28.86C112.489 29.4733 112.803 29.94 113.243 30.26C113.696 30.58 114.309 30.74 115.083 30.74C115.736 30.74 116.269 30.56 116.683 30.2C117.109 29.84 117.423 29.3533 117.623 28.74C117.836 28.1133 117.943 27.4 117.943 26.6C117.943 25.3733 117.703 24.3933 117.223 23.66C116.756 22.9267 116.029 22.56 115.043 22.56ZM126.627 21.1C127.934 21.1 128.901 21.3867 129.527 21.96C130.154 22.5333 130.467 23.4467 130.467 24.7V32H129.187L128.847 30.48H128.767C128.461 30.8667 128.141 31.1933 127.807 31.46C127.487 31.7133 127.114 31.9 126.687 32.02C126.274 32.14 125.767 32.2 125.167 32.2C124.527 32.2 123.947 32.0867 123.427 31.86C122.921 31.6333 122.521 31.2867 122.227 30.82C121.934 30.34 121.787 29.74 121.787 29.02C121.787 27.9533 122.207 27.1333 123.047 26.56C123.887 25.9733 125.181 25.6533 126.927 25.6L128.747 25.54V24.9C128.747 24.0067 128.554 23.3867 128.167 23.04C127.781 22.6933 127.234 22.52 126.527 22.52C125.967 22.52 125.434 22.6067 124.927 22.78C124.421 22.94 123.947 23.1267 123.507 23.34L122.967 22.02C123.434 21.7667 123.987 21.5533 124.627 21.38C125.267 21.1933 125.934 21.1 126.627 21.1ZM127.147 26.82C125.814 26.8733 124.887 27.0867 124.367 27.46C123.861 27.8333 123.607 28.36 123.607 29.04C123.607 29.64 123.787 30.08 124.147 30.36C124.521 30.64 124.994 30.78 125.567 30.78C126.474 30.78 127.227 30.5333 127.827 30.04C128.427 29.5333 128.727 28.76 128.727 27.72V26.76L127.147 26.82ZM138.078 32.2C137.131 32.2 136.285 32.0067 135.538 31.62C134.805 31.2333 134.225 30.6333 133.798 29.82C133.385 29.0067 133.178 27.9667 133.178 26.7C133.178 25.38 133.398 24.3067 133.838 23.48C134.278 22.6533 134.871 22.0467 135.618 21.66C136.378 21.2733 137.238 21.08 138.198 21.08C138.745 21.08 139.271 21.14 139.778 21.26C140.285 21.3667 140.698 21.5 141.018 21.66L140.478 23.12C140.158 23 139.785 22.8867 139.358 22.78C138.931 22.6733 138.531 22.62 138.158 22.62C137.438 22.62 136.845 22.7733 136.378 23.08C135.911 23.3867 135.565 23.84 135.338 24.44C135.111 25.04 134.998 25.7867 134.998 26.68C134.998 27.5333 135.111 28.26 135.338 28.86C135.565 29.46 135.905 29.9133 136.358 30.22C136.811 30.5267 137.378 30.68 138.058 30.68C138.645 30.68 139.158 30.62 139.598 30.5C140.051 30.38 140.465 30.2333 140.838 30.06V31.62C140.478 31.8067 140.078 31.9467 139.638 32.04C139.211 32.1467 138.691 32.2 138.078 32.2ZM147.528 21.08C148.448 21.08 149.234 21.28 149.888 21.68C150.554 22.08 151.061 22.6467 151.408 23.38C151.768 24.1 151.948 24.9467 151.948 25.92V26.98H144.608C144.634 28.1933 144.941 29.12 145.528 29.76C146.128 30.3867 146.961 30.7 148.028 30.7C148.708 30.7 149.308 30.64 149.828 30.52C150.361 30.3867 150.908 30.2 151.468 29.96V31.5C150.921 31.74 150.381 31.9133 149.848 32.02C149.314 32.14 148.681 32.2 147.948 32.2C146.934 32.2 146.034 31.9933 145.248 31.58C144.474 31.1667 143.868 30.5533 143.428 29.74C143.001 28.9133 142.788 27.9067 142.788 26.72C142.788 25.5467 142.981 24.54 143.368 23.7C143.768 22.86 144.321 22.2133 145.028 21.76C145.748 21.3067 146.581 21.08 147.528 21.08ZM147.508 22.52C146.668 22.52 146.001 22.7933 145.508 23.34C145.028 23.8733 144.741 24.62 144.648 25.58H150.108C150.108 24.9667 150.014 24.4333 149.828 23.98C149.641 23.5267 149.354 23.1733 148.968 22.92C148.594 22.6533 148.108 22.52 147.508 22.52ZM154.117 33.44L159.137 17.38H160.737L155.677 33.44H154.117ZM163.569 31.2L162.549 29.98L168.729 25.58V26.22L162.549 21.78L163.569 20.58L169.869 25.22V26.58L163.569 31.2Z" fill="black" fill-opacity="0.2"/>
<path d="M40.8305 22.952H46.7585V31.352C45.8305 31.656 44.8945 31.88 43.9505 32.024C43.0065 32.168 41.9345 32.24 40.7345 32.24C38.9585 32.24 37.4625 31.888 36.2465 31.184C35.0305 30.464 34.1025 29.448 33.4625 28.136C32.8385 26.808 32.5265 25.24 32.5265 23.432C32.5265 21.64 32.8785 20.088 33.5825 18.776C34.2865 17.464 35.2945 16.448 36.6065 15.728C37.9345 14.992 39.5345 14.624 41.4065 14.624C42.3665 14.624 43.2705 14.712 44.1185 14.888C44.9825 15.064 45.7825 15.312 46.5185 15.632L45.7025 17.504C45.0945 17.232 44.4065 17 43.6385 16.808C42.8865 16.616 42.1025 16.52 41.2865 16.52C39.9265 16.52 38.7585 16.8 37.7825 17.36C36.8065 17.92 36.0625 18.72 35.5505 19.76C35.0385 20.784 34.7825 22.008 34.7825 23.432C34.7825 24.792 34.9985 26 35.4305 27.056C35.8785 28.096 36.5745 28.912 37.5185 29.504C38.4625 30.08 39.7025 30.368 41.2385 30.368C41.7505 30.368 42.1985 30.352 42.5825 30.32C42.9825 30.272 43.3425 30.216 43.6625 30.152C43.9985 30.088 44.3105 30.024 44.5985 29.96V24.872H40.8305V22.952Z" fill="black"/>
<path d="M40.8305 22.952H46.7585V31.352C45.8305 31.656 44.8945 31.88 43.9505 32.024C43.0065 32.168 41.9345 32.24 40.7345 32.24C38.9585 32.24 37.4625 31.888 36.2465 31.184C35.0305 30.464 34.1025 29.448 33.4625 28.136C32.8385 26.808 32.5265 25.24 32.5265 23.432C32.5265 21.64 32.8785 20.088 33.5825 18.776C34.2865 17.464 35.2945 16.448 36.6065 15.728C37.9345 14.992 39.5345 14.624 41.4065 14.624C42.3665 14.624 43.2705 14.712 44.1185 14.888C44.9825 15.064 45.7825 15.312 46.5185 15.632L45.7025 17.504C45.0945 17.232 44.4065 17 43.6385 16.808C42.8865 16.616 42.1025 16.52 41.2865 16.52C39.9265 16.52 38.7585 16.8 37.7825 17.36C36.8065 17.92 36.0625 18.72 35.5505 19.76C35.0385 20.784 34.7825 22.008 34.7825 23.432C34.7825 24.792 34.9985 26 35.4305 27.056C35.8785 28.096 36.5745 28.912 37.5185 29.504C38.4625 30.08 39.7025 30.368 41.2385 30.368C41.7505 30.368 42.1985 30.352 42.5825 30.32C42.9825 30.272 43.3425 30.216 43.6625 30.152C43.9985 30.088 44.3105 30.024 44.5985 29.96V24.872H40.8305V22.952Z" fill="#A92DE3"/>
<path d="M107.626 28.18C107.626 29.0333 107.419 29.76 107.006 30.36C106.593 30.9467 105.999 31.4 105.226 31.72C104.466 32.04 103.566 32.2 102.526 32.2C101.993 32.2 101.479 32.1733 100.986 32.12C100.506 32.0667 100.066 31.9933 99.6659 31.9C99.2659 31.7933 98.9126 31.6667 98.6059 31.52V29.8C99.0859 30.0133 99.6793 30.2067 100.386 30.38C101.106 30.5533 101.846 30.64 102.606 30.64C103.313 30.64 103.906 30.5467 104.386 30.36C104.866 30.1733 105.226 29.9067 105.466 29.56C105.706 29.2133 105.826 28.8067 105.826 28.34C105.826 27.8733 105.726 27.48 105.526 27.16C105.326 26.84 104.979 26.5467 104.486 26.28C104.006 26 103.333 25.7067 102.466 25.4C101.853 25.1733 101.313 24.9333 100.846 24.68C100.393 24.4133 100.013 24.1133 99.7059 23.78C99.3993 23.4467 99.1659 23.0667 99.0059 22.64C98.8593 22.2133 98.7859 21.72 98.7859 21.16C98.7859 20.4 98.9793 19.7533 99.3659 19.22C99.7526 18.6733 100.286 18.2533 100.966 17.96C101.659 17.6667 102.453 17.52 103.346 17.52C104.133 17.52 104.853 17.5933 105.506 17.74C106.159 17.8867 106.753 18.08 107.286 18.32L106.726 19.86C106.233 19.6467 105.693 19.4667 105.106 19.32C104.533 19.1733 103.933 19.1 103.306 19.1C102.706 19.1 102.206 19.1867 101.806 19.36C101.406 19.5333 101.106 19.78 100.906 20.1C100.706 20.4067 100.606 20.7667 100.606 21.18C100.606 21.66 100.706 22.06 100.906 22.38C101.106 22.7 101.433 22.9867 101.886 23.24C102.339 23.4933 102.953 23.7667 103.726 24.06C104.566 24.3667 105.273 24.7 105.846 25.06C106.433 25.4067 106.873 25.8267 107.166 26.32C107.473 26.8133 107.626 27.4333 107.626 28.18Z" fill="black"/>
<path d="M107.626 28.18C107.626 29.0333 107.419 29.76 107.006 30.36C106.593 30.9467 105.999 31.4 105.226 31.72C104.466 32.04 103.566 32.2 102.526 32.2C101.993 32.2 101.479 32.1733 100.986 32.12C100.506 32.0667 100.066 31.9933 99.6659 31.9C99.2659 31.7933 98.9126 31.6667 98.6059 31.52V29.8C99.0859 30.0133 99.6793 30.2067 100.386 30.38C101.106 30.5533 101.846 30.64 102.606 30.64C103.313 30.64 103.906 30.5467 104.386 30.36C104.866 30.1733 105.226 29.9067 105.466 29.56C105.706 29.2133 105.826 28.8067 105.826 28.34C105.826 27.8733 105.726 27.48 105.526 27.16C105.326 26.84 104.979 26.5467 104.486 26.28C104.006 26 103.333 25.7067 102.466 25.4C101.853 25.1733 101.313 24.9333 100.846 24.68C100.393 24.4133 100.013 24.1133 99.7059 23.78C99.3993 23.4467 99.1659 23.0667 99.0059 22.64C98.8593 22.2133 98.7859 21.72 98.7859 21.16C98.7859 20.4 98.9793 19.7533 99.3659 19.22C99.7526 18.6733 100.286 18.2533 100.966 17.96C101.659 17.6667 102.453 17.52 103.346 17.52C104.133 17.52 104.853 17.5933 105.506 17.74C106.159 17.8867 106.753 18.08 107.286 18.32L106.726 19.86C106.233 19.6467 105.693 19.4667 105.106 19.32C104.533 19.1733 103.933 19.1 103.306 19.1C102.706 19.1 102.206 19.1867 101.806 19.36C101.406 19.5333 101.106 19.78 100.906 20.1C100.706 20.4067 100.606 20.7667 100.606 21.18C100.606 21.66 100.706 22.06 100.906 22.38C101.106 22.7 101.433 22.9867 101.886 23.24C102.339 23.4933 102.953 23.7667 103.726 24.06C104.566 24.3667 105.273 24.7 105.846 25.06C106.433 25.4067 106.873 25.8267 107.166 26.32C107.473 26.8133 107.626 27.4333 107.626 28.18Z" fill="#A92DE3"/>
</g>
<defs>
<filter id="filter0_dd_2_3" x="18.82" y="14.624" width="155.049" height="30.176" filterUnits="userSpaceOnUse" color-interpolation-filters="sRGB">
<feFlood flood-opacity="0" result="BackgroundImageFix"/>
<feColorMatrix in="SourceAlpha" type="matrix" values="0 0 0 0 0 0 0 0 0 0 0 0 0 0 0 0 0 0 127 0" result="hardAlpha"/>
<feOffset dy="4"/>
<feGaussianBlur stdDeviation="2"/>
<feComposite in2="hardAlpha" operator="out"/>
<feColorMatrix type="matrix" values="0 0 0 0 0 0 0 0 0 0 0 0 0 0 0 0 0 0 0.25 0"/>
<feBlend mode="normal" in2="BackgroundImageFix" result="effect1_dropShadow_2_3"/>
<feColorMatrix in="SourceAlpha" type="matrix" values="0 0 0 0 0 0 0 0 0 0 0 0 0 0 0 0 0 0 127 0" result="hardAlpha"/>
<feOffset dy="4"/>
<feGaussianBlur stdDeviation="2"/>
<feComposite in2="hardAlpha" operator="out"/>
<feColorMatrix type="matrix" values="0 0 0 0 0 0 0 0 0 0 0 0 0 0 0 0 0 0 0.25 0"/>
<feBlend mode="normal" in2="effect1_dropShadow_2_3" result="effect2_dropShadow_2_3"/>
<feBlend mode="normal" in="SourceGraphic" in2="effect2_dropShadow_2_3" result="shape"/>
</filter>
</defs>
</svg>
